# xmcd CD database file generated by Grip 3.3.1
# 
# Track frame offsets:
#       150
#       12883
#       27997
# 
# Disc length: 573 seconds
# 
# Revision: 2
# Processed by: cddbd v1.5.1PL2 Copyright (c) Steve Scherf et al.
# Submitted via: Grip 3.3.1
# 
DISCID=18023b03
DTITLE=Kovamyrsk - Hakiksessa sataa
DYEAR=2005
DGENRE=Folk
TTITLE0=Hakiksessa sataa
TTITLE1=Ota minut laulusta
TTITLE2=Hyvät ajat
EXTD=
EXTT0=
EXTT1=
EXTT2=
PLAYORDER=
